# Made in Blockbench 5.1.6
mtllib billboard.mtl

o mesh
v 2.875 3.625 0.25
v 2.875 3.625 -0.25
v 2.875 0 0.25
v 2.875 0 -0.25
v -2.875 3.625 0.25
v -2.875 3.625 -0.25
v -2.875 0 0.25
v -2.875 0 -0.25
vt 0.078125 0.697265625
vt 0.0625 0.697265625
vt 0.0625 0.681640625
vt 0.078125 0.681640625
vt 0.0380859375 0.810546875
vt 0.0380859375 0.826171875
vt 0.0224609375 0.826171875
vt 0.0224609375 0.810546875
vt 0 0.423828125
vt 0.028320312500000003 0.423828125
vt 0.028320312500000003 0.453125
vt 0 0.453125
vt 0.025390625 0.697265625
vt 0.025390625 0.728515625
vt 0.009765625 0.728515625
vt 0.009765625 0.697265625
vt 0.9990234375 0.00390625
vt 0.9990234375 1
vt 0.0908203125 1
vt 0.087890625 0.00390625
vt 0.0458984375 0.57421875
vt 0.0302734375 0.57421875
vt 0.0302734375 0.55859375
vt 0.0458984375 0.55859375
vn 1 0 0
vn -1 0 0
vn 0 1 0
vn 0 -1 0
vn 0 0 1
vn 0 0 -1
usemtl m_a71ef58f-b5ca-9deb-e3ec-5f9985be0b7f
f 2/1/1 1/2/1 3/3/1 4/4/1
f 7/5/2 5/6/2 6/7/2 8/8/2
f 5/9/3 1/10/3 2/11/3 6/12/3
f 4/13/4 3/14/4 7/15/4 8/16/4
f 3/17/5 1/18/5 5/19/5 7/20/5
f 6/21/6 2/22/6 4/23/6 8/24/6