# Made in Blockbench 5.1.6
mtllib bomb.mtl

o beveled_cuboid
v 0.234375 0.5625 0.234375
v 0.234375 0.5625 -0.234375
v -0.234375 0.5625 0.234375
v -0.234375 0.5625 -0.234375
v 0.234375 0.0625 0.234375
v 0.234375 0.0625 -0.234375
v -0.234375 0.0625 0.234375
v -0.234375 0.0625 -0.234375
v -0.3125 0.1875 0.234375
v -0.3125 0.4375 0.234375
v -0.3125 0.1875 -0.234375
v -0.3125 0.4375 -0.234375
v 0.3125 0.1875 0.234375
v 0.3125 0.4375 0.234375
v 0.3125 0.1875 -0.234375
v 0.3125 0.4375 -0.234375
v 0.234375 0.1875 -0.3125
v 0.234375 0.4375 -0.3125
v -0.234375 0.1875 -0.3125
v -0.234375 0.4375 -0.3125
v 0.234375 0.1875 0.3125
v 0.234375 0.4375 0.3125
v -0.234375 0.1875 0.3125
v -0.234375 0.4375 0.3125
vt 0.2421875 0.926296875
vt 0.0078125 0.926296875
vt 0.0078125 0.801296875
vt 0.2421875 0.801296875
vt 0.5234375 0.801296875
vt 0.5234375 0.926296875
vt 0.2890625 0.926296875
vt 0.2890625 0.801296875
vt 0.8125 0.75
vt 0.8125 1
vt 0.5625 1
vt 0.5625 0.75
vt 0.5625 0.46875
vt 0.8125 0.46875
vt 0.8125 0.71875
vt 0.5625 0.71875
vt 0.2421875 0.488796875
vt 0.2421875 0.613796875
vt 0.0078125 0.613796875
vt 0.0078125 0.488796875
vt 0.5234375 0.613796875
vt 0.2890625 0.613796875
vt 0.2890625 0.488796875
vt 0.5234375 0.488796875
vt 0.2421875 1
vt 0.0078125 1
vt 0.0078125 0.926296875
vt 0.2421875 0.926296875
vt 0.5234375 0.926296875
vt 0.5234375 1
vt 0.2890625 1
vt 0.2890625 0.926296875
vt 0.2421875 0.613796875
vt 0.2421875 0.6875
vt 0.0078125 0.6875
vt 0.0078125 0.613796875
vt 0.5234375 0.6875
vt 0.2890625 0.6875
vt 0.2890625 0.613796875
vt 0.5234375 0.613796875
vt 0.0078125 0.801296875
vt 0.0078125 0.72759375
vt 0.2421875 0.72759375
vt 0.2421875 0.801296875
vt 0.2890625 0.72759375
vt 0.5234375 0.72759375
vt 0.5234375 0.801296875
vt 0.2890625 0.801296875
vt 0.0078125 0.41509375000000004
vt 0.2421875 0.41509375000000004
vt 0.2421875 0.488796875
vt 0.0078125 0.488796875
vt 0.2890625 0.488796875
vt 0.2890625 0.41509375000000004
vt 0.5234375 0.41509375000000004
vt 0.5234375 0.488796875
vt 0.1875 0.18166875000000005
vt 0.24274375 0.18166875000000005
vt 0.24274375 0.30666875000000005
vt 0.1875 0.30666875000000005
vt 0.28850625 0.30666875000000005
vt 0.28850625 0.18166875000000005
vt 0.34375 0.18166875000000005
vt 0.34375 0.30666875000000005
vt 0.38225625 0.30666875000000005
vt 0.38225625 0.18166875000000005
vt 0.4375 0.18166875000000005
vt 0.4375 0.30666875000000005
vt 0.46875 0.18166875000000005
vt 0.52399375 0.18166875000000005
vt 0.52399375 0.30666875000000005
vt 0.46875 0.30666875000000005
vt 0.316128125 0.11333749999999998
vt 0.34375 0.18166875000000005
vt 0.28850625 0.18166875000000005
vt 0.496371875 0.11333749999999998
vt 0.52399375 0.18166875000000005
vt 0.46875 0.18166875000000005
vt 0.215121875 0.11333749999999998
vt 0.24274375 0.18166875000000005
vt 0.1875 0.18166875000000005
vt 0.409878125 0.11333749999999998
vt 0.4375 0.18166875000000005
vt 0.38225625 0.18166875000000005
vt 0.316128125 0.375
vt 0.28850625 0.30666875000000005
vt 0.34375 0.30666875000000005
vt 0.496371875 0.375
vt 0.46875 0.30666875000000005
vt 0.52399375 0.30666875000000005
vt 0.215121875 0.375
vt 0.1875 0.30666875000000005
vt 0.24274375 0.30666875000000005
vt 0.409878125 0.375
vt 0.38225625 0.30666875000000005
vt 0.4375 0.30666875000000005
vn 1 0 0
vn -1 0 0
vn 0 1 0
vn 0 -1 0
vn 0 0 1
vn 0 0 -1
vn 0.847998304005088 0.52999894000318 0
vn -0.847998304005088 0.52999894000318 0
vn 0 0.52999894000318 0.847998304005088
vn 0 0.52999894000318 -0.847998304005088
vn 0.847998304005088 -0.52999894000318 0
vn -0.847998304005088 -0.52999894000318 0
vn 0 -0.52999894000318 0.847998304005088
vn 0 -0.52999894000318 -0.847998304005088
vn 0.7071067811865476 0 -0.7071067811865476
vn 0.7071067811865476 0 0.7071067811865476
vn -0.7071067811865476 0 -0.7071067811865476
vn -0.7071067811865476 0 0.7071067811865476
vn 0.6467616667635546 -0.40422604172722165 0.6467616667635546
vn -0.6467616667635546 -0.40422604172722165 0.6467616667635546
vn 0.6467616667635546 -0.40422604172722165 -0.6467616667635546
vn -0.6467616667635546 -0.40422604172722165 -0.6467616667635546
vn 0.6467616667635546 0.40422604172722165 0.6467616667635546
vn -0.6467616667635546 0.40422604172722165 0.6467616667635546
vn 0.6467616667635546 0.40422604172722165 -0.6467616667635546
vn -0.6467616667635546 0.40422604172722165 -0.6467616667635546
usemtl m_30cd7aa1-f538-3620-46e1-744f64ca6834
f 16/1/1 14/2/1 13/3/1 15/4/1
f 9/5/2 10/6/2 12/7/2 11/8/2
f 1/9/3 2/10/3 4/11/3 3/12/3
f 8/13/4 6/14/4 5/15/4 7/16/4
f 21/17/5 22/18/5 24/19/5 23/20/5
f 20/21/6 18/22/6 17/23/6 19/24/6
f 2/25/7 1/26/7 14/27/7 16/28/7
f 10/29/8 3/30/8 4/31/8 12/32/8
f 22/33/9 1/34/9 3/35/9 24/36/9
f 4/37/10 2/38/10 18/39/10 20/40/10
f 13/41/11 5/42/11 6/43/11 15/44/11
f 8/45/12 7/46/12 9/47/12 11/48/12
f 7/49/13 5/50/13 21/51/13 23/52/13
f 17/53/14 6/54/14 8/55/14 19/56/14
f 15/57/15 17/58/15 18/59/15 16/60/15
f 22/61/16 21/62/16 13/63/16 14/64/16
f 20/65/17 19/66/17 11/67/17 12/68/17
f 9/69/18 23/70/18 24/71/18 10/72/18
f 5/73/19 13/74/19 21/75/19
f 7/76/20 23/77/20 9/78/20
f 6/79/21 17/80/21 15/81/21
f 8/82/22 11/83/22 19/84/22
f 1/85/23 22/86/23 14/87/23
f 3/88/24 10/89/24 24/90/24
f 2/91/25 16/92/25 18/93/25
f 4/94/26 20/95/26 12/96/26
o mesh
v 0.0625 0.6875 0.0625
v 0.0625 0.6875 -0.0625
v 0.0625 0.5625 0.0625
v 0.0625 0.5625 -0.0625
v -0.0625 0.6875 0.0625
v -0.0625 0.6875 -0.0625
v -0.0625 0.5625 0.0625
v -0.0625 0.5625 -0.0625
vt 0.8125 0.25
vt 0.75 0.25
vt 0.75 0.1875
vt 0.8125 0.1875
vt 0.0625 0.125
vt 0.0625 0.1875
vt 0 0.1875
vt 0 0.125
vt 0.09375 0.125
vt 0.15625 0.125
vt 0.15625 0.1875
vt 0.09375 0.1875
vt 0.625 0.125
vt 0.625 0.1875
vt 0.5625 0.1875
vt 0.5625 0.125
vt 0.71875 0.125
vt 0.71875 0.1875
vt 0.65625 0.1875
vt 0.65625 0.125
vt 0.90625 1
vt 0.84375 1
vt 0.84375 0.9375
vt 0.90625 0.9375
vn 1 0 0
vn -1 0 0
vn 0 1 0
vn 0 -1 0
vn 0 0 1
vn 0 0 -1
usemtl m_30cd7aa1-f538-3620-46e1-744f64ca6834
f 26/97/27 25/98/27 27/99/27 28/100/27
f 31/101/28 29/102/28 30/103/28 32/104/28
f 29/105/29 25/106/29 26/107/29 30/108/29
f 28/109/30 27/110/30 31/111/30 32/112/30
f 27/113/31 25/114/31 29/115/31 31/116/31
f 30/117/32 26/118/32 28/119/32 32/120/32
o mesh
v 0.140625 0.0625 0.140625
v 0.140625 0.0625 -0.140625
v 0.140625 0 0.140625
v 0.140625 0 -0.140625
v -0.140625 0.0625 0.140625
v -0.140625 0.0625 -0.140625
v -0.140625 0 0.140625
v -0.140625 0 -0.140625
vt 0.71875 0.25
vt 0.5625 0.25
vt 0.5625 0.21875
vt 0.71875 0.21875
vt 0.90625 0.40625
vt 0.90625 0.4375
vt 0.75 0.4375
vt 0.75 0.40625
vt 0.5625 0.28125
vt 0.71875 0.28125
vt 0.71875 0.4375
vt 0.5625 0.4375
vt 0.15625 0.21875
vt 0.15625 0.375
vt 0 0.375
vt 0 0.21875
vt 0.90625 0.34375
vt 0.90625 0.375
vt 0.75 0.375
vt 0.75 0.34375
vt 0.90625 0.3125
vt 0.75 0.3125
vt 0.75 0.28125
vt 0.90625 0.28125
vn 1 0 0
vn -1 0 0
vn 0 1 0
vn 0 -1 0
vn 0 0 1
vn 0 0 -1
usemtl m_30cd7aa1-f538-3620-46e1-744f64ca6834
f 34/121/33 33/122/33 35/123/33 36/124/33
f 39/125/34 37/126/34 38/127/34 40/128/34
f 37/129/35 33/130/35 34/131/35 38/132/35
f 36/133/36 35/134/36 39/135/36 40/136/36
f 35/137/37 33/138/37 37/139/37 39/140/37
f 38/141/38 34/142/38 36/143/38 40/144/38