# Made in Blockbench 5.1.6
mtllib magic_crystal.mtl

o beveled_cuboid
v 0.03125 1 0.03125
v 0.03125 1 -0.03125
v -0.03125 1 0.03125
v -0.03125 1 -0.03125
v 0.03125 0 0.03125
v 0.03125 0 -0.03125
v -0.03125 0 0.03125
v -0.03125 0 -0.03125
v -0.34375 0.3125 0.03125
v -0.34375 0.6875 0.03125
v -0.34375 0.3125 -0.03125
v -0.34375 0.6875 -0.03125
v 0.34375 0.3125 0.03125
v 0.34375 0.6875 0.03125
v 0.34375 0.3125 -0.03125
v 0.34375 0.6875 -0.03125
v 0.03125 0.3125 -0.34375
v 0.03125 0.6875 -0.34375
v -0.03125 0.3125 -0.34375
v -0.03125 0.6875 -0.34375
v 0.03125 0.3125 0.34375
v 0.03125 0.6875 0.34375
v -0.03125 0.3125 0.34375
v -0.03125 0.6875 0.34375
vt 0.3125 0.5625
vt 0.296875 0.5625
vt 0.296875 0.46875
vt 0.3125 0.46875
vt 0.015625 0.453125
vt 0.015625 0.546875
vt 0 0.546875
vt 0 0.453125
vt 0.015625 0.65625
vt 0.015625 0.671875
vt 0 0.671875
vt 0 0.65625
vt 0.203125 0.65625
vt 0.21875 0.65625
vt 0.21875 0.671875
vt 0.203125 0.671875
vt 0.046875 0.453125
vt 0.046875 0.546875
vt 0.03125 0.546875
vt 0.03125 0.453125
vt 0.078125 0.546875
vt 0.0625 0.546875
vt 0.0625 0.453125
vt 0.078125 0.453125
vt 0.375 0.640625
vt 0.359375 0.640625
vt 0.359375 0.53125
vt 0.375 0.53125
vt 0.125 0.515625
vt 0.125 0.625
vt 0.109375 0.625
vt 0.109375 0.515625
vt 0.1171875 0.6551390625
vt 0.1171875 0.765625
vt 0.1015625 0.765625
vt 0.1015625 0.6551390625
vt 0.3515625 1
vt 0.3359375 1
vt 0.3359375 0.8895140625
vt 0.3515625 0.8895140625
vt 0.390625 0.640625
vt 0.390625 0.53125
vt 0.40625 0.53125
vt 0.40625 0.640625
vt 0.421875 0.53125
vt 0.4375 0.53125
vt 0.4375 0.640625
vt 0.421875 0.640625
vt 0.1015625 0.875
vt 0.1171875 0.875
vt 0.1171875 0.985484375
vt 0.1015625 0.985484375
vt 0.2109375 0.876109375
vt 0.2109375 0.765625
vt 0.2265625 0.765625
vt 0.2265625 0.876109375
vt 0.234375 0.65625
vt 0.34375 0.65625
vt 0.34375 0.75
vt 0.234375 0.75
vt 0.34375 0.859375
vt 0.34375 0.765625
vt 0.453125 0.765625
vt 0.453125 0.859375
vt 0.140625 0.640625
vt 0.140625 0.546875
vt 0.25 0.546875
vt 0.25 0.640625
vt 0.359375 0.65625
vt 0.46875 0.65625
vt 0.46875 0.75
vt 0.359375 0.75
vt 0.1171875 0.875
vt 0.212870300340478 0.9302449148603743
vt 0.1171875 0.9854861932502237
vt 0.1015625 0.875
vt 0.1015625 0.9854861932502237
vt 0.005879699659521995 0.9302449148603743
vt 0.2109375 0.765625
vt 0.2109375 0.8761111932502237
vt 0.115254699659522 0.8208699148603743
vt 0.2265625 0.765625
vt 0.322245300340478 0.8208699148603743
vt 0.2265625 0.8761111932502237
vt 0.1171875 0.765625
vt 0.11718749999999996 0.6551401599191304
vt 0.21286990972758701 0.7103821148796745
vt 0.1015625 0.765625
vt 0.0058800902724129855 0.7103821148796746
vt 0.1015625 0.6551401599191304
vt 0.3359375 1
vt 0.24025509027241299 0.9447571148796746
vt 0.3359375 0.8895151599191304
vt 0.3515625 1
vt 0.35156249999999994 0.8895151599191304
vt 0.447244909727587 0.9447571148796745
vn 1 0 0
vn -1 0 0
vn 0 1 0
vn 0 -1 0
vn 0 0 1
vn 0 0 -1
vn 0.7071067811865476 0.7071067811865476 0
vn -0.7071067811865476 0.7071067811865476 0
vn 0 0.7071067811865476 0.7071067811865476
vn 0 0.7071067811865476 -0.7071067811865476
vn 0.7071067811865476 -0.7071067811865476 0
vn -0.7071067811865476 -0.7071067811865476 0
vn 0 -0.7071067811865476 0.7071067811865476
vn 0 -0.7071067811865476 -0.7071067811865476
vn 0.7071067811865476 0 -0.7071067811865476
vn 0.7071067811865476 0 0.7071067811865476
vn -0.7071067811865476 0 -0.7071067811865476
vn -0.7071067811865476 0 0.7071067811865476
vn 0.5773502691896257 -0.5773502691896257 0.5773502691896257
vn -0.5773502691896257 -0.5773502691896257 0.5773502691896257
vn 0.5773502691896257 -0.5773502691896257 -0.5773502691896257
vn -0.5773502691896257 -0.5773502691896257 -0.5773502691896257
vn 0.5773502691896257 0.5773502691896257 0.5773502691896257
vn -0.5773502691896257 0.5773502691896257 0.5773502691896257
vn 0.5773502691896257 0.5773502691896257 -0.5773502691896257
vn -0.5773502691896257 0.5773502691896257 -0.5773502691896257
usemtl m_80f277d8-d50d-8521-c1a7-0904b83eed59
f 16/1/1 14/2/1 13/3/1 15/4/1
f 9/5/2 10/6/2 12/7/2 11/8/2
f 1/9/3 2/10/3 4/11/3 3/12/3
f 8/13/4 6/14/4 5/15/4 7/16/4
f 21/17/5 22/18/5 24/19/5 23/20/5
f 20/21/6 18/22/6 17/23/6 19/24/6
f 2/25/7 1/26/7 14/27/7 16/28/7
f 10/29/8 3/30/8 4/31/8 12/32/8
f 22/33/9 1/34/9 3/35/9 24/36/9
f 4/37/10 2/38/10 18/39/10 20/40/10
f 13/41/11 5/42/11 6/43/11 15/44/11
f 8/45/12 7/46/12 9/47/12 11/48/12
f 7/49/13 5/50/13 21/51/13 23/52/13
f 17/53/14 6/54/14 8/55/14 19/56/14
f 15/57/15 17/58/15 18/59/15 16/60/15
f 22/61/16 21/62/16 13/63/16 14/64/16
f 20/65/17 19/66/17 11/67/17 12/68/17
f 9/69/18 23/70/18 24/71/18 10/72/18
f 5/73/19 13/74/19 21/75/19
f 7/76/20 23/77/20 9/78/20
f 6/79/21 17/80/21 15/81/21
f 8/82/22 11/83/22 19/84/22
f 1/85/23 22/86/23 14/87/23
f 3/88/24 10/89/24 24/90/24
f 2/91/25 16/92/25 18/93/25
f 4/94/26 20/95/26 12/96/26
o torus
v 0.0721687836487032 1.09375 -0.03608439182435158
v 0.08376608363258693 1.1138371128027043 -0.0276422478403724
v 0.0899368780643791 1.1245252422816314 -0.006265988882518105
v 0.0877937836487032 1.1208132938682638 0.018042195912175832
v 0.07833957808049537 1.1044381294789272 0.033908236722890596
v 0.06599798921691104 1.0830618705210728 0.033908236722890596
v 0.056543783648703216 1.0666867061317362 0.018042195912175842
v 0.05440068923302731 1.0629747577183686 -0.006265988882518102
v 0.060571483664819466 1.0736628871972957 -0.0276422478403724
v 0.14433756729740643 0.96875 -0.03608439182435161
v 0.1675321672651739 0.96875 -0.02764224784037243
v 0.17987375612875822 0.96875 -0.006265988882518139
v 0.17558756729740643 0.96875 0.018042195912175797
v 0.15667915616099076 0.96875 0.03390823672289057
v 0.1319959784338221 0.96875 0.03390823672289057
v 0.11308756729740645 0.96875 0.01804219591217582
v 0.10880137846605463 0.96875 -0.006265988882518123
v 0.12114296732963895 0.96875 -0.027642247840372423
v 0.0721687836487032 0.84375 -0.036084391824351636
v 0.08376608363258693 0.8236628871972956 -0.02764224784037246
v 0.0899368780643791 0.8129747577183685 -0.006265988882518174
v 0.0877937836487032 0.8166867061317363 0.018042195912175762
v 0.07833957808049537 0.8330618705210728 0.03390823672289054
v 0.06599798921691104 0.8544381294789272 0.03390823672289054
v 0.056543783648703216 0.8708132938682637 0.0180421959121758
v 0.05440068923302731 0.8745252422816315 -0.006265988882518144
v 0.060571483664819466 0.8638371128027044 -0.027642247840372447
v -0.07216878364870323 0.84375 -0.036084391824351636
v -0.08376608363258696 0.8236628871972956 -0.02764224784037246
v -0.08993687806437912 0.8129747577183686 -0.006265988882518174
v -0.08779378364870323 0.8166867061317363 0.018042195912175762
v -0.0783395780804954 0.8330618705210728 0.03390823672289054
v -0.06599798921691107 0.8544381294789272 0.03390823672289054
v -0.05654378364870324 0.8708132938682637 0.0180421959121758
v -0.05440068923302733 0.8745252422816315 -0.006265988882518144
v -0.06057148366481949 0.8638371128027044 -0.027642247840372447
v -0.14433756729740643 0.96875 -0.03608439182435161
v -0.1675321672651739 0.96875 -0.02764224784037243
v -0.17987375612875822 0.96875 -0.006265988882518139
v -0.17558756729740643 0.96875 0.018042195912175797
v -0.15667915616099076 0.96875 0.03390823672289057
v -0.1319959784338221 0.96875 0.03390823672289057
v -0.11308756729740645 0.96875 0.01804219591217582
v -0.10880137846605463 0.96875 -0.006265988882518123
v -0.12114296732963895 0.96875 -0.027642247840372423
v -0.07216878364870329 1.09375 -0.03608439182435158
v -0.08376608363258702 1.1138371128027043 -0.0276422478403724
v -0.0899368780643792 1.1245252422816314 -0.006265988882518105
v -0.0877937836487033 1.1208132938682636 0.018042195912175832
v -0.07833957808049545 1.1044381294789272 0.033908236722890596
v -0.06599798921691111 1.0830618705210728 0.033908236722890596
v -0.05654378364870327 1.0666867061317362 0.018042195912175842
v -0.05440068923302736 1.0629747577183684 -0.006265988882518102
v -0.06057148366481953 1.0736628871972955 -0.0276422478403724
vt 0.022278659074204517 0.8546370194028967
vt 0.018325181222097787 0.859375
vt 0.0025495907268012763 0.8205751080714735
vt 0.008687616512898177 0.8212099991761792
vt 0.4721984375 0.8246218750000001
vt 0.47065625 0.818646875
vt 0.515625 0.818646875
vt 0.5140828125 0.8246218750000001
vt 0.47065625 0.818646875
vt 0.4711921875 0.8125
vt 0.5150890625 0.8125
vt 0.515625 0.818646875
vt 0.424853125 1
vt 0.4272171875 0.984375
vt 0.4663859375 0.984375
vt 0.46875 1
vt 0.066459375 0.63034375
vt 0.063375 0.625
vt 0.0798734375 0.596421875
vt 0.0860453125 0.596421875
vt 0.53125 0.6875
vt 0.5288859375 0.703125
vt 0.5006140625 0.703125
vt 0.49824999999999997 0.6875
vt 0.32711875 0.765625
vt 0.3265828125 0.771771875
vt 0.2993828125 0.771771875
vt 0.298846875 0.765625
vt 0.3265828125 0.771771875
vt 0.328125 0.7777468750000001
vt 0.297840625 0.7777468750000001
vt 0.2993828125 0.771771875
vt 0.2895453125 0.6351781249999999
vt 0.2866453125 0.640625
vt 0.2665001165128982 0.6106875118324553
vt 0.2726381422989951 0.6100526207277495
vt 0.008687616512898184 0.8212099991761792
vt 0.0025495907268012763 0.8205751080714735
vt 0.0259328125 0.7858256360086344
vt 0.0288328125 0.7912725110086345
vt 0.4702921875 0.8558718750000001
vt 0.46875 0.849896875
vt 0.51371875 0.849896875
vt 0.5121765625 0.8558718750000001
vt 0.46875 0.849896875
vt 0.4692859375 0.84375
vt 0.5131828125 0.84375
vt 0.51371875 0.849896875
vt 0.453125 0.921875
vt 0.4554890625 0.90625
vt 0.4946578125 0.90625
vt 0.497021875 0.921875
vt 0.0860453125 0.596421875
vt 0.0798734375 0.596421875
vt 0.063375 0.56784375
vt 0.066459375 0.5625
vt 0.517375 0.984375
vt 0.5150109375 1
vt 0.4867390625 1
vt 0.484375 0.984375
vt 0.513653125 0.65625
vt 0.5131171875 0.662396875
vt 0.4859171875 0.662396875
vt 0.48538125 0.65625
vt 0.5131171875 0.662396875
vt 0.514659375 0.6683718750000001
vt 0.484375 0.6683718750000001
vt 0.4859171875 0.662396875
vt 0.2726381422989951 0.6100526207277495
vt 0.2665001165128982 0.6106875118324553
vt 0.28009115907420457 0.5772604916057377
vt 0.28404463692631127 0.5819984722028408
vt 0.0288328125 0.7912725110086345
vt 0.0259328125 0.7858256360086344
vt 0.0678171875 0.7858256360086344
vt 0.0649171875 0.7912725110086345
vt 0.4556203125 0.5433718750000001
vt 0.454078125 0.537396875
vt 0.499046875 0.537396875
vt 0.4975046875 0.5433718750000001
vt 0.454078125 0.537396875
vt 0.4546140625 0.53125
vt 0.4985109375 0.53125
vt 0.499046875 0.537396875
vt 0.001489062499999999 1
vt 0.003853124999999999 0.984375
vt 0.043021875 0.984375
vt 0.0453859375 1
vt 0.066459375 0.5625
vt 0.063375 0.56784375
vt 0.030375 0.56784375
vt 0.027290625 0.5625
vt 0.24306250000000001 0.515625
vt 0.2406984375 0.53125
vt 0.2124265625 0.53125
vt 0.21006249999999999 0.515625
vt 0.0297609375 0.875
vt 0.029225 0.881146875
vt 0.0020250000000000008 0.881146875
vt 0.0014890625000000008 0.875
vt 0.029225 0.881146875
vt 0.0307671875 0.8871218750000001
vt 0.0004828125000000006 0.8871218750000001
vt 0.0020250000000000008 0.881146875
vt 0.4917046875 0.5625
vt 0.4946046875 0.578125
vt 0.4585203125 0.578125
vt 0.4614203125 0.5625
vt 0.0649171875 0.7912725110086345
vt 0.0678171875 0.7858256360086344
vt 0.09120040927319872 0.8205751080714735
vt 0.08506238348710182 0.8212099991761792
vt 0.1440734375 0.5277468750000001
vt 0.14253125 0.521771875
vt 0.1875 0.521771875
vt 0.18595781249999999 0.5277468750000001
vt 0.14253125 0.521771875
vt 0.1430671875 0.515625
vt 0.1869640625 0.515625
vt 0.1875 0.521771875
vt 0.456103125 0.640625
vt 0.4584671875 0.625
vt 0.4976359375 0.625
vt 0.5 0.640625
vt 0.027290625 0.5625
vt 0.030375 0.56784375
vt 0.013876562500000002 0.596421875
vt 0.0077046875000000015 0.596421875
vt 0.53125 0.71875
vt 0.5288859375 0.734375
vt 0.5006140625 0.734375
vt 0.49824999999999997 0.71875
vt 0.35836875 0.5
vt 0.3578328125 0.506146875
vt 0.3306328125 0.506146875
vt 0.330096875 0.5
vt 0.3578328125 0.506146875
vt 0.359375 0.5121218750000001
vt 0.329090625 0.5121218750000001
vt 0.3306328125 0.506146875
vt 0.32533036307368873 0.5819984722028408
vt 0.32928384092579543 0.5772604916057377
vt 0.3428748834871018 0.6106875118324553
vt 0.3367368577010049 0.6100526207277495
vt 0.08506238348710182 0.8212099991761792
vt 0.09120040927319872 0.8205751080714735
vt 0.07542481877790222 0.859375
vt 0.07147134092579549 0.8546370194028967
vt 0.4702921875 0.8871218750000001
vt 0.46875 0.881146875
vt 0.51371875 0.881146875
vt 0.5121765625 0.887121875
vt 0.46875 0.881146875
vt 0.4692859375 0.875
vt 0.5131828125 0.875
vt 0.51371875 0.881146875
vt 0.40625 0.890625
vt 0.4086140625 0.875
vt 0.4477828125 0.875
vt 0.450146875 0.890625
vt 0.0077046875000000015 0.596421875
vt 0.013876562500000002 0.596421875
vt 0.030375 0.625
vt 0.027290625 0.63034375
vt 0.517375 0.75
vt 0.5150109375 0.765625
vt 0.4867390625 0.765625
vt 0.484375 0.75
vt 0.263653125 0.984375
vt 0.2631171875 0.990521875
vt 0.23591718750000001 0.990521875
vt 0.23538125 0.984375
vt 0.2631171875 0.990521875
vt 0.264659375 0.996496875
vt 0.234375 0.996496875
vt 0.23591718750000001 0.990521875
vt 0.3367368577010049 0.6100526207277495
vt 0.3428748834871018 0.6106875118324553
vt 0.3227296875 0.640625
vt 0.3198296875 0.6351781249999999
vt 0.4585203125 0.609375
vt 0.4556203125 0.59375
vt 0.4975046875 0.59375
vt 0.4946046875 0.609375
vt 0.4712453125 0.9652468750000001
vt 0.469703125 0.959271875
vt 0.514671875 0.959271875
vt 0.5131296875 0.965246875
vt 0.469703125 0.959271875
vt 0.4702390625 0.953125
vt 0.5141359375 0.953125
vt 0.514671875 0.959271875
vt 0.1733640625 1
vt 0.175728125 0.984375
vt 0.214896875 0.984375
vt 0.2172609375 1
vt 0.027290625 0.63034375
vt 0.030375 0.625
vt 0.063375 0.625
vt 0.066459375 0.63034375
vt 0.5086875 0.78125
vt 0.5063234375 0.796875
vt 0.4780515625 0.796875
vt 0.4756875 0.78125
vt 0.0297609375 0.75
vt 0.029225 0.756146875
vt 0.0020250000000000008 0.756146875
vt 0.0014890625000000008 0.75
vt 0.029225 0.756146875
vt 0.0307671875 0.7621218750000001
vt 0.0004828125000000006 0.7621218750000001
vt 0.0020250000000000008 0.756146875
vt 0.3198296875 0.6351781249999999
vt 0.3227296875 0.640625
vt 0.2866453125 0.640625
vt 0.2895453125 0.6351781249999999
vn 0.3355408952648478 0.1937246262052882 -0.9218910330437572
vn 0.7745966692414834 0.44721359549995804 -0.44721359549995837
vn 0.8561014635046966 0.49427041040806924 0.15095378623988143
vn 0.6026272807587889 0.34792702276709875 0.7181832268395654
vn 0 -2.220446049250313e-16 1
vn -0.6026272807587885 -0.3479270227670989 0.7181832268395657
vn -0.8561014635046966 -0.4942704104080691 0.15095378623988162
vn -0.7745966692414834 -0.447213595499958 -0.4472135954999577
vn -0.3355408952648478 -0.1937246262052878 -0.9218910330437573
vn 0.3355408952648479 -0.19372462620528783 -0.9218910330437574
vn 0.7745966692414832 -0.4472135954999577 -0.44721359549995815
vn 0.8561014635046966 -0.49427041040806924 0.15095378623988082
vn 0.6026272807587886 -0.34792702276709897 0.7181832268395655
vn 0 -2.220446049250313e-16 1
vn -0.6026272807587884 0.34792702276709847 0.718183226839566
vn -0.8561014635046965 0.4942704104080691 0.15095378623988193
vn -0.7745966692414835 0.44721359549995815 -0.4472135954999575
vn -0.33554089526484776 0.19372462620528813 -0.9218910330437574
vn 0 -0.3874492524105757 -0.9218910330437573
vn -1.3871341074045624e-16 -0.8944271909999156 -0.4472135954999588
vn 0 -0.9885408208161381 0.1509537862398815
vn -1.213971888480734e-16 -0.6958540455341983 0.718183226839565
vn 0 -2.220446049250313e-16 1
vn 8.409593363614962e-17 0.6958540455341973 0.718183226839566
vn 1.215735808540543e-16 0.9885408208161381 0.15095378623988187
vn 1.0298122443799757e-16 0.8944271909999163 -0.4472135954999575
vn 3.447410215170536e-17 0.3874492524105761 -0.9218910330437572
vn -0.33554089526484776 -0.19372462620528771 -0.9218910330437573
vn -0.7745966692414835 -0.4472135954999579 -0.4472135954999581
vn -0.8561014635046966 -0.49427041040806924 0.15095378623988068
vn -0.6026272807587886 -0.3479270227670989 0.7181832268395655
vn 0 -2.220446049250313e-16 1
vn 0.6026272807587885 0.3479270227670985 0.718183226839566
vn 0.8561014635046966 0.494270410408069 0.15095378623988187
vn 0.7745966692414836 0.44721359549995826 -0.4472135954999576
vn 0.3355408952648477 0.19372462620528808 -0.9218910330437573
vn -0.335540895264848 0.19372462620528805 -0.9218910330437572
vn -0.7745966692414836 0.4472135954999578 -0.44721359549995815
vn -0.8561014635046967 0.4942704104080688 0.15095378623988104
vn -0.6026272807587887 0.3479270227670984 0.7181832268395657
vn 0 -2.220446049250313e-16 1
vn 0.6026272807587885 -0.3479270227670986 0.7181832268395658
vn 0.8561014635046967 -0.494270410408069 0.15095378623988173
vn 0.7745966692414836 -0.4472135954999577 -0.4472135954999577
vn 0.3355408952648478 -0.19372462620528758 -0.9218910330437575
vn -1.3365544386222593e-16 0.38744925241057643 -0.9218910330437572
vn -2.774268214809124e-16 0.8944271909999156 -0.4472135954999585
vn -3.138835839757762e-16 0.9885408208161381 0.15095378623988193
vn -2.4279437769614666e-16 0.6958540455341978 0.7181832268395653
vn 0 -2.220446049250313e-16 1
vn 1.6819186727229918e-16 -0.6958540455341976 0.7181832268395656
vn 3.7485187430000065e-16 -0.9885408208161383 0.15095378623988204
vn 3.089436733139925e-16 -0.8944271909999161 -0.44721359549995804
vn 1.1204083199304235e-16 -0.3874492524105755 -0.9218910330437574
usemtl m_80f277d8-d50d-8521-c1a7-0904b83eed59
f 25/97/27 26/98/27 35/99/27 34/100/27
f 26/101/28 27/102/28 36/103/28 35/104/28
f 27/105/29 28/106/29 37/107/29 36/108/29
f 28/109/30 29/110/30 38/111/30 37/112/30
f 29/113/31 30/114/31 39/115/31 38/116/31
f 30/117/32 31/118/32 40/119/32 39/120/32
f 31/121/33 32/122/33 41/123/33 40/124/33
f 32/125/34 33/126/34 42/127/34 41/128/34
f 33/129/35 25/130/35 34/131/35 42/132/35
f 34/133/36 35/134/36 44/135/36 43/136/36
f 35/137/37 36/138/37 45/139/37 44/140/37
f 36/141/38 37/142/38 46/143/38 45/144/38
f 37/145/39 38/146/39 47/147/39 46/148/39
f 38/149/40 39/150/40 48/151/40 47/152/40
f 39/153/41 40/154/41 49/155/41 48/156/41
f 40/157/42 41/158/42 50/159/42 49/160/42
f 41/161/43 42/162/43 51/163/43 50/164/43
f 42/165/44 34/166/44 43/167/44 51/168/44
f 43/169/45 44/170/45 53/171/45 52/172/45
f 44/173/46 45/174/46 54/175/46 53/176/46
f 45/177/47 46/178/47 55/179/47 54/180/47
f 46/181/48 47/182/48 56/183/48 55/184/48
f 47/185/49 48/186/49 57/187/49 56/188/49
f 48/189/50 49/190/50 58/191/50 57/192/50
f 49/193/51 50/194/51 59/195/51 58/196/51
f 50/197/52 51/198/52 60/199/52 59/200/52
f 51/201/53 43/202/53 52/203/53 60/204/53
f 52/205/54 53/206/54 62/207/54 61/208/54
f 53/209/55 54/210/55 63/211/55 62/212/55
f 54/213/56 55/214/56 64/215/56 63/216/56
f 55/217/57 56/218/57 65/219/57 64/220/57
f 56/221/58 57/222/58 66/223/58 65/224/58
f 57/225/59 58/226/59 67/227/59 66/228/59
f 58/229/60 59/230/60 68/231/60 67/232/60
f 59/233/61 60/234/61 69/235/61 68/236/61
f 60/237/62 52/238/62 61/239/62 69/240/62
f 61/241/63 62/242/63 71/243/63 70/244/63
f 62/245/64 63/246/64 72/247/64 71/248/64
f 63/249/65 64/250/65 73/251/65 72/252/65
f 64/253/66 65/254/66 74/255/66 73/256/66
f 65/257/67 66/258/67 75/259/67 74/260/67
f 66/261/68 67/262/68 76/263/68 75/264/68
f 67/265/69 68/266/69 77/267/69 76/268/69
f 68/269/70 69/270/70 78/271/70 77/272/70
f 69/273/71 61/274/71 70/275/71 78/276/71
f 70/277/72 71/278/72 26/279/72 25/280/72
f 71/281/73 72/282/73 27/283/73 26/284/73
f 72/285/74 73/286/74 28/287/74 27/288/74
f 73/289/75 74/290/75 29/291/75 28/292/75
f 74/293/76 75/294/76 30/295/76 29/296/76
f 75/297/77 76/298/77 31/299/77 30/300/77
f 76/301/78 77/302/78 32/303/78 31/304/78
f 77/305/79 78/306/79 33/307/79 32/308/79
f 78/309/80 70/310/80 25/311/80 33/312/80
o beveled_cuboid_outline
v 0.04568734992310047 1.033625300153799 0.04568734992310047
v 0.04568734992310047 1.033625300153799 -0.04568734992310047
v -0.04568734992310047 1.033625300153799 0.04568734992310047
v -0.04568734992310047 1.033625300153799 -0.04568734992310047
v 0.04568734992310047 -0.03362530015379905 0.04568734992310047
v 0.04568734992310047 -0.03362530015379905 -0.04568734992310047
v -0.04568734992310047 -0.03362530015379905 0.04568734992310047
v -0.04568734992310047 -0.03362530015379905 -0.04568734992310047
v -0.37737530015379905 0.2980626500768995 0.04568734992310047
v -0.37737530015379905 0.7019373499231005 0.04568734992310047
v -0.37737530015379905 0.2980626500768995 -0.04568734992310047
v -0.37737530015379905 0.7019373499231005 -0.04568734992310047
v 0.37737530015379905 0.2980626500768995 0.04568734992310047
v 0.37737530015379905 0.7019373499231005 0.04568734992310047
v 0.37737530015379905 0.2980626500768995 -0.04568734992310047
v 0.37737530015379905 0.7019373499231005 -0.04568734992310047
v 0.04568734992310047 0.2980626500768995 -0.37737530015379905
v 0.04568734992310047 0.7019373499231005 -0.37737530015379905
v -0.04568734992310047 0.2980626500768995 -0.37737530015379905
v -0.04568734992310047 0.7019373499231005 -0.37737530015379905
v 0.04568734992310047 0.2980626500768995 0.37737530015379905
v 0.04568734992310047 0.7019373499231005 0.37737530015379905
v -0.04568734992310047 0.2980626500768995 0.37737530015379905
v -0.04568734992310047 0.7019373499231005 0.37737530015379905
vt 1.1875 -1.125
vt 1.1875 -0.75
vt 1.25 -0.75
vt 1.25 -1.125
vt 0 -0.8125
vt 0.0625 -0.8125
vt 0.0625 -1.1875
vt 0 -1.1875
vt 0 -0.3125
vt 0.0625 -0.3125
vt 0.0625 -0.375
vt 0 -0.375
vt 0.875 -0.3125
vt 0.875 -0.375
vt 0.8125 -0.375
vt 0.8125 -0.3125
vt 0.125 -0.8125
vt 0.1875 -0.8125
vt 0.1875 -1.1875
vt 0.125 -1.1875
vt 0.25 -1.1875
vt 0.25 -0.8125
vt 0.3125 -0.8125
vt 0.3125 -1.1875
vt 1.4375 -0.875
vt 1.4375 -0.4375
vt 1.5 -0.4375
vt 1.5 -0.875
vt 0.4375 -0.5
vt 0.5 -0.5
vt 0.5 -0.9375
vt 0.4375 -0.9375
vt 0.40625 0.0625
vt 0.46875 0.0625
vt 0.46875 -0.3794437500000001
vt 0.40625 -0.3794437500000001
vt 1.34375 0.5580562499999999
vt 1.34375 1
vt 1.40625 1
vt 1.40625 0.5580562499999999
vt 1.625 -0.875
vt 1.5625 -0.875
vt 1.5625 -0.4375
vt 1.625 -0.4375
vt 1.75 -0.4375
vt 1.75 -0.875
vt 1.6875 -0.875
vt 1.6875 -0.4375
vt 0.46875 0.9419375
vt 0.46875 0.5
vt 0.40625 0.5
vt 0.40625 0.9419375
vt 0.90625 0.0625
vt 0.84375 0.0625
vt 0.84375 0.5044375
vt 0.90625 0.5044375
vt 1.375 0
vt 1.375 -0.375
vt 0.9375 -0.375
vt 0.9375 0
vt 1.8125 0.0625
vt 1.375 0.0625
vt 1.375 0.4375
vt 1.8125 0.4375
vt 1 -0.8125
vt 0.5625 -0.8125
vt 0.5625 -0.4375
vt 1 -0.4375
vt 1.875 0
vt 1.875 -0.375
vt 1.4375 -0.375
vt 1.4375 0
vt 0.851481201361912 0.7209796594414972
vt 0.46875 0.5
vt 0.46875 0.941944773000895
vt 0.40625 0.941944773000895
vt 0.40625 0.5
vt 0.02351879863808798 0.7209796594414972
vt 0.84375 0.504444773000895
vt 0.84375 0.0625
vt 0.461018798638088 0.2834796594414972
vt 1.288981201361912 0.2834796594414972
vt 0.90625 0.0625
vt 0.90625 0.504444773000895
vt 0.46874999999999983 -0.379439360323478
vt 0.46875 0.0625
vt 0.8514796389103481 -0.15847154048130174
vt 0.023520361089651942 -0.15847154048130152
vt 0.40625 0.0625
vt 0.40625 -0.379439360323478
vt 0.9610203610896519 0.7790284595186984
vt 1.34375 1
vt 1.34375 0.558060639676522
vt 1.4062499999999998 0.558060639676522
vt 1.40625 1
vt 1.788979638910348 0.7790284595186983
vn -1 0 0
vn 1 0 0
vn 0 -1 0
vn 0 1 0
vn 0 0 -1
vn 0 0 1
vn -0.7071067811865474 -0.7071067811865478 0
vn 0.7071067811865474 -0.7071067811865478 0
vn 0 -0.7071067811865478 -0.7071067811865474
vn 0 -0.7071067811865478 0.7071067811865474
vn -0.7071067811865476 0.7071067811865476 0
vn 0.7071067811865476 0.7071067811865476 0
vn 0 0.7071067811865476 -0.7071067811865476
vn 0 0.7071067811865476 0.7071067811865476
vn -0.7071067811865476 0 0.7071067811865476
vn -0.7071067811865476 0 -0.7071067811865476
vn 0.7071067811865476 0 0.7071067811865476
vn 0.7071067811865476 0 -0.7071067811865476
vn -0.5773502691896257 0.5773502691896257 -0.5773502691896257
vn 0.5773502691896257 0.5773502691896257 -0.5773502691896257
vn -0.5773502691896257 0.5773502691896257 0.5773502691896257
vn 0.5773502691896257 0.5773502691896257 0.5773502691896257
vn -0.5773502691896257 -0.577350269189626 -0.5773502691896257
vn 0.5773502691896257 -0.577350269189626 -0.5773502691896257
vn -0.5773502691896257 -0.577350269189626 0.5773502691896257
vn 0.5773502691896257 -0.577350269189626 0.5773502691896257
usemtl m_68d842fd-7d9e-77bc-5864-3b033819a138
f 91/313/81 92/314/81 94/315/81 93/316/81
f 90/317/82 88/318/82 87/319/82 89/320/82
f 82/321/83 80/322/83 79/323/83 81/324/83
f 83/325/84 84/326/84 86/327/84 85/328/84
f 102/329/85 100/330/85 99/331/85 101/332/85
f 95/333/86 96/334/86 98/335/86 97/336/86
f 92/337/87 79/338/87 80/339/87 94/340/87
f 82/341/88 81/342/88 88/343/88 90/344/88
f 81/345/89 79/346/89 100/347/89 102/348/89
f 96/349/90 80/350/90 82/351/90 98/352/90
f 84/353/91 83/354/91 91/355/91 93/356/91
f 87/357/92 85/358/92 86/359/92 89/360/92
f 99/361/93 83/362/93 85/363/93 101/364/93
f 86/365/94 84/366/94 95/367/94 97/368/94
f 96/369/95 95/370/95 93/371/95 94/372/95
f 91/373/96 99/374/96 100/375/96 92/376/96
f 89/377/97 97/378/97 98/379/97 90/380/97
f 102/381/98 101/382/98 87/383/98 88/384/98
f 91/385/99 83/386/99 99/387/99
f 101/388/100 85/389/100 87/390/100
f 95/391/101 84/392/101 93/393/101
f 89/394/102 86/395/102 97/396/102
f 100/397/103 79/398/103 92/399/103
f 88/400/104 81/401/104 102/402/104
f 94/403/105 80/404/105 96/405/105
f 98/406/106 82/407/106 90/408/106